<svg xmlns="http://www.w3.org/2000/svg" xmlns:xlink="http://www.w3.org/1999/xlink" width="3121" height="1660.348" viewBox="0 0 3121 1660.348">
  <defs>
    <linearGradient id="linear-gradient" x1="0.671" y1="0.047" x2="0.475" y2="1.194" gradientUnits="objectBoundingBox">
      <stop offset="0" stop-color="#4487ff"/>
      <stop offset="1" stop-color="#224480"/>
    </linearGradient>
    <linearGradient id="linear-gradient-2" x1="0.577" y1="0.526" x2="0.385" y2="0.654" gradientUnits="objectBoundingBox">
      <stop offset="0" stop-color="#3060b5"/>
      <stop offset="1" stop-color="#224480"/>
    </linearGradient>
    <clipPath id="clip-path">
      <path id="Path_256" data-name="Path 256" d="M10143.052,1979.2s247.05-412.8,909.051-291.2,875.474-80,965.02-249.6,300.619-598.4,585.247-505.6,415.75,912,415.75,912-12.794,406.4-230.263,361.6-1337.194-477.2-1970.412,10.8-265.839,446.4-727.961,97.6S10143.052,1979.2,10143.052,1979.2Z" transform="translate(-9897.119 -919.804)" fill="url(#linear-gradient)"/>
    </clipPath>
    <linearGradient id="linear-gradient-3" x1="0.5" x2="0.5" y2="1" gradientUnits="objectBoundingBox">
      <stop offset="0" stop-color="#3060b5"/>
      <stop offset="1" stop-color="#18305b"/>
    </linearGradient>
    <clipPath id="clip-path-2">
      <path id="Path_254" data-name="Path 254" d="M10143.052,1979.2s247.05-412.8,909.051-291.2,875.474-80,965.02-249.6,300.619-598.4,585.247-505.6,415.75,912,415.75,912-12.794,406.4-230.263,361.6-1337.194-477.2-1970.412,10.8-265.839,446.4-727.961,97.6S10143.052,1979.2,10143.052,1979.2Z" transform="translate(-9897.119 -919.804)" opacity="0.4" fill="url(#linear-gradient-2)"/>
    </clipPath>
    <linearGradient id="linear-gradient-4" x1="0.5" y1="0" x2="0.5" y2="1" xlink:href="#linear-gradient"/>
  </defs>
  <g id="Group_75" data-name="Group 75" transform="translate(594.88 -854.804)">
    <path id="Path_251" data-name="Path 251" d="M10143.052,1979.2s247.05-412.8,909.051-291.2,875.474-80,965.02-249.6,300.619-598.4,585.247-505.6,415.75,912,415.75,912-12.794,406.4-230.263,361.6-1337.194-477.2-1970.412,10.8-265.839,446.4-727.961,97.6S10143.052,1979.2,10143.052,1979.2Z" transform="translate(-10491.999 -65)" fill="#4487ff"/>
    <g id="Mask_Group_6" data-name="Mask Group 6" transform="translate(-594.88 854.804)" opacity="0.2" clip-path="url(#clip-path)" style="mix-blend-mode: multiply;isolation: isolate">
      <path id="Path_255" data-name="Path 255" d="M12410.609,883.03s-134.948,72.727-212.479,438.788-245.912,467.273-752.274,423.636-847.973-198.788-1175.049,65.454-71.473,788.485-71.473,788.485l2635.988,147.879-31.5-1064.242Z" transform="translate(-9897.244 -854.804)" stroke="#707070" stroke-width="1" fill="url(#linear-gradient-3)"/>
    </g>
    <g id="Mask_Group_5" data-name="Mask Group 5" transform="translate(-594.88 854.804)" opacity="0.15" clip-path="url(#clip-path-2)" style="mix-blend-mode: multiply;isolation: isolate">
      <path id="Path_253" data-name="Path 253" d="M10248.453,2109.091s583.891-426.667,1441.556-310.3,978.8,523.637,978.8,523.637l-2471.237,252.121Z" transform="translate(-9897.302 -854.804)" fill="url(#linear-gradient-4)" style="mix-blend-mode: multiply;isolation: isolate"/>
    </g>
  </g>
</svg>
