<?xml version="1.0" standalone="no"?>
<!DOCTYPE svg PUBLIC "-//W3C//DTD SVG 20010904//EN"
 "http://www.w3.org/TR/2001/REC-SVG-20010904/DTD/svg10.dtd">
<svg version="1.0" xmlns="http://www.w3.org/2000/svg"
 width="1938.000000pt" height="1064.000000pt" viewBox="0 0 1938.000000 1064.000000"
 preserveAspectRatio="xMidYMid meet">

<g transform="translate(0.000000,1064.000000) scale(0.100000,-0.100000)"
fill="#000000" stroke="none">
<path d="M1219 10573 c-1 -38 -3 -79 -4 -93 -1 -14 -10 -162 -18 -330 -9 -168
-21 -359 -27 -425 -5 -66 -15 -250 -20 -410 -6 -159 -13 -300 -16 -313 -3 -13
-9 -141 -14 -285 -6 -144 -14 -300 -20 -347 -5 -47 -10 -152 -10 -235 0 -82
-7 -251 -14 -375 -8 -124 -15 -272 -16 -329 0 -58 -3 -108 -6 -112 -2 -4 -9
-133 -14 -286 -5 -153 -16 -408 -25 -568 -8 -159 -20 -405 -25 -545 -6 -140
-15 -307 -20 -370 -5 -63 -12 -223 -15 -355 -3 -132 -12 -348 -20 -480 -8
-132 -19 -375 -25 -540 -6 -165 -13 -316 -15 -335 -3 -19 -11 -208 -19 -420
-19 -469 -33 -783 -41 -871 -6 -65 -5 -67 26 -95 18 -16 49 -46 69 -66 20 -21
41 -38 46 -38 5 0 17 -8 26 -17 31 -35 76 -73 86 -73 6 0 12 -4 14 -8 2 -4 23
-23 48 -42 25 -19 47 -37 50 -40 15 -15 88 -60 97 -60 6 0 24 -11 40 -24 28
-24 92 -60 106 -61 4 0 11 -5 15 -10 7 -9 69 -46 119 -69 13 -6 23 -14 23 -18
0 -5 8 -8 18 -8 9 0 30 -7 46 -15 15 -8 34 -15 41 -15 7 0 15 -6 18 -13 2 -7
17 -13 32 -15 16 -1 33 -6 39 -11 6 -5 27 -12 46 -16 19 -4 40 -11 45 -15 28
-21 236 -71 405 -97 171 -26 515 -24 665 5 61 11 130 24 155 27 25 4 50 11 55
15 6 4 33 11 60 15 28 4 64 13 80 20 17 7 53 19 80 26 28 7 61 19 75 26 14 7
32 13 40 13 8 0 24 7 34 15 11 8 26 15 34 15 8 0 38 11 66 24 28 13 74 34 103
46 29 13 50 26 48 30 -2 3 6 6 18 6 16 -1 23 7 28 29 5 23 7 25 8 8 0 -13 4
-23 7 -23 8 0 97 50 114 65 8 7 40 23 70 36 30 13 57 26 60 30 5 6 138 90 204
127 16 10 43 29 60 43 17 14 52 38 78 55 27 16 48 32 48 37 0 4 6 7 13 7 8 0
22 9 32 20 10 11 24 20 32 20 7 0 13 3 13 8 0 4 27 27 60 51 33 24 60 48 60
54 0 6 3 8 6 5 3 -3 22 9 42 28 20 19 40 34 44 34 4 0 21 12 37 28 16 15 55
50 86 77 32 28 80 71 107 97 27 26 62 55 77 64 15 9 36 29 47 45 10 16 22 29
25 29 8 0 254 246 292 291 15 19 63 70 105 114 43 44 119 127 170 185 95 108
105 119 135 148 9 9 17 20 17 25 0 4 16 26 36 47 20 22 44 50 52 62 15 22 102
126 131 157 7 8 39 49 70 90 31 42 58 78 61 81 3 3 17 21 30 40 13 19 27 37
30 40 3 3 21 25 40 50 19 25 40 52 47 60 7 8 39 53 72 100 33 47 67 92 76 101
8 9 15 21 15 27 0 7 5 12 10 12 6 0 10 4 10 10 0 9 19 35 48 65 6 8 12 18 12
23 0 6 4 12 8 14 5 2 28 32 53 67 70 102 74 106 82 109 4 2 7 10 7 18 0 8 3
14 8 14 4 0 12 9 17 20 17 34 228 344 247 363 10 10 18 22 18 27 0 9 106 169
119 180 3 3 20 25 36 50 17 25 38 54 48 64 9 11 17 24 17 28 0 5 13 23 30 41
16 18 30 38 30 45 0 6 4 12 9 12 5 0 35 35 67 77 32 43 67 87 79 99 29 31 58
66 76 94 9 14 29 39 45 56 16 17 52 58 80 90 78 89 113 124 125 124 5 0 7 5 4
10 -3 6 -1 10 4 10 6 0 11 5 11 12 0 12 78 88 92 88 4 0 8 5 8 12 0 12 196
207 332 330 35 32 77 71 95 88 18 16 35 30 39 30 12 0 82 68 76 74 -3 3 1 6 9
6 8 0 29 14 47 31 17 16 36 28 41 25 5 -3 11 0 14 8 3 8 30 32 59 55 172 129
214 161 225 171 7 5 15 10 17 10 3 0 14 7 23 14 55 46 129 96 140 96 7 0 13 4
13 9 0 5 17 16 38 24 20 8 46 24 56 36 11 12 25 21 32 21 7 0 19 6 26 13 16
14 30 23 107 68 114 66 164 90 177 85 7 -3 11 0 8 7 -3 10 156 95 256 137 14
5 32 14 40 19 37 24 123 61 141 61 10 0 19 4 19 9 0 8 47 29 60 28 3 -1 19 6
35 15 17 9 49 23 73 32 93 35 128 49 147 57 60 25 325 112 350 114 6 0 15 3
20 7 25 15 167 59 178 55 9 -4 9 -6 0 -6 -27 -2 -11 -21 17 -21 20 0 30 5 30
15 0 8 -6 15 -12 16 -25 2 174 56 222 61 19 1 37 6 40 9 5 5 210 49 270 57 19
2 37 8 40 12 3 4 52 12 110 19 58 7 146 19 195 27 61 11 116 14 171 9 66 -5
83 -4 93 9 10 12 31 16 77 16 40 0 64 4 64 11 0 7 30 10 94 7 52 -1 89 0 84 3
-17 11 151 18 561 25 255 4 385 3 390 -4 3 -5 41 -13 84 -17 69 -7 77 -6 77
10 0 13 6 16 21 12 12 -3 124 -11 249 -18 126 -7 226 -17 224 -21 -3 -4 37 -8
88 -9 51 0 118 -3 148 -5 30 -3 99 -9 153 -13 57 -5 103 -14 110 -21 10 -10 5
-12 -23 -7 -19 3 -29 3 -23 0 8 -3 13 -24 13 -54 0 -42 3 -49 20 -49 17 0 20
7 20 39 0 22 -5 41 -12 44 -18 6 70 29 90 24 10 -3 5 -5 -10 -6 -16 0 -28 -4
-28 -9 0 -4 55 -7 123 -7 119 1 186 -5 277 -25 44 -9 43 -9 -17 -6 -49 3 -63
1 -63 -10 0 -8 6 -14 13 -14 9 0 9 -2 -1 -9 -8 -5 10 -10 49 -15 91 -9 219 -7
219 3 0 18 -98 32 -143 20 -27 -6 -51 -7 -67 -1 -23 9 -21 10 15 11 22 0 70 1
108 2 72 1 139 -17 115 -32 -10 -7 -10 -9 0 -9 8 0 12 -16 12 -44 0 -34 4 -46
18 -49 9 -3 -9 -5 -40 -6 -33 0 -58 3 -58 9 0 6 -18 10 -41 10 -24 0 -38 -4
-34 -10 3 -5 -1 -10 -9 -10 -9 0 -16 5 -16 10 0 6 -13 10 -30 10 -34 0 -38 -7
-12 -26 16 -13 16 -15 0 -28 -10 -7 -18 -18 -18 -24 0 -15 38 -3 44 14 6 15
36 19 36 5 0 -5 13 -6 33 0 38 10 165 31 375 61 117 17 151 25 148 35 -5 11
-1 11 16 2 11 -6 37 -8 57 -5 38 6 246 -14 246 -24 0 -3 93 -19 290 -50 77
-12 149 -27 160 -31 25 -11 49 -16 145 -30 41 -6 83 -15 92 -20 10 -5 28 -9
40 -9 13 0 58 -9 101 -20 43 -11 99 -22 125 -24 26 -3 61 -9 77 -15 17 -6 71
-17 120 -25 85 -14 140 -26 210 -47 17 -4 46 -10 65 -13 19 -3 67 -12 105 -21
142 -32 302 -66 380 -80 44 -8 100 -20 125 -26 25 -6 54 -12 65 -15 11 -2 63
-13 115 -24 52 -11 130 -27 173 -35 43 -8 101 -21 130 -28 98 -27 147 -37 170
-37 13 0 29 -6 36 -12 10 -11 11 -9 6 7 -6 18 -5 18 7 4 8 -10 41 -22 73 -27
33 -6 94 -18 135 -26 41 -9 87 -14 103 -10 15 3 27 1 27 -4 0 -14 25 -22 115
-38 66 -11 275 -52 335 -66 13 -3 15 26 18 201 2 168 0 202 -11 198 -8 -3 -14
1 -14 8 0 7 6 11 14 8 11 -4 13 231 13 1386 l0 1391 -9080 0 -9080 0 -1 -67z
m10774 -2190 c-7 -2 -19 -2 -25 0 -7 3 -2 5 12 5 14 0 19 -2 13 -5z m2615 -50
c-10 -2 -26 -2 -35 0 -10 3 -2 5 17 5 19 0 27 -2 18 -5z m670 -88 c2 -2 2 -11
0 -21 -3 -16 -4 -16 -19 -2 -8 9 -40 21 -70 27 l-54 10 70 -5 c38 -3 71 -7 73
-9z m801 -29 c-2 -2 -29 -6 -59 -9 -37 -4 -50 -3 -40 3 14 9 109 15 99 6z m78
-2 c-3 -3 -12 -4 -19 -1 -8 3 -5 6 6 6 11 1 17 -2 13 -5z m836 -1 c-7 -2 -19
-2 -25 0 -7 3 -2 5 12 5 14 0 19 -2 13 -5z m74 1 c-3 -3 -12 -4 -19 -1 -8 3
-5 6 6 6 11 1 17 -2 13 -5z m-1167 -14 c-14 -4 -41 -8 -60 -8 -28 -1 -31 1
-15 8 11 5 38 8 60 8 34 0 36 -1 15 -8z m20 -20 c0 -5 -8 -10 -17 -10 -15 0
-16 2 -3 10 19 12 20 12 20 0z m1568 3 c-10 -2 -26 -2 -35 0 -10 3 -2 5 17 5
19 0 27 -2 18 -5z m80 -10 c-10 -2 -26 -2 -35 0 -10 3 -2 5 17 5 19 0 27 -2
18 -5z m-181 -9 c-3 -3 -12 -4 -19 -1 -8 3 -5 6 6 6 11 1 17 -2 13 -5z m-2194
-11 c-7 -2 -19 -2 -25 0 -7 3 -2 5 12 5 14 0 19 -2 13 -5z m1054 1 c-3 -3 -12
-4 -19 -1 -8 3 -5 6 6 6 11 1 17 -2 13 -5z m-67 -14 c20 -6 21 -8 5 -8 -11 0
-31 4 -45 8 -20 6 -21 8 -5 8 11 0 31 -4 45 -8z m-1140 -10 c0 -5 -4 -10 -9
-10 -5 0 -23 -3 -40 -6 -19 -4 -31 -2 -31 4 0 9 17 14 68 21 6 0 12 -3 12 -9z
m2898 3 c-10 -2 -28 -2 -40 0 -13 2 -5 4 17 4 22 1 32 -1 23 -4z m-1685 -10
c-7 -2 -21 -2 -30 0 -10 3 -4 5 12 5 17 0 24 -2 18 -5z m1744 1 c-3 -3 -12 -4
-19 -1 -8 3 -5 6 6 6 11 1 17 -2 13 -5z m-47 -14 c0 -5 -7 -10 -15 -10 -8 0
-15 5 -15 10 0 6 7 10 15 10 8 0 15 -4 15 -10z m143 3 c-7 -2 -19 -2 -25 0 -7
3 -2 5 12 5 14 0 19 -2 13 -5z m94 -19 c-3 -3 -12 -4 -19 -1 -8 3 -5 6 6 6 11
1 17 -2 13 -5z m-320 -10 c-3 -3 -12 -4 -19 -1 -8 3 -5 6 6 6 11 1 17 -2 13
-5z m-1390 -10 c-3 -3 -12 -4 -19 -1 -8 3 -5 6 6 6 11 1 17 -2 13 -5z m168 -4
c-3 -5 -14 -10 -23 -9 -14 0 -13 2 3 9 27 11 27 11 20 0z m75 -10 c0 -5 -4
-10 -9 -10 -6 0 -13 5 -16 10 -3 6 1 10 9 10 9 0 16 -4 16 -10z m1885 -30 c17
-7 16 -9 -10 -9 -16 0 -37 4 -45 9 -12 8 -10 10 10 9 14 0 34 -4 45 -9z m-92
-17 c-7 -2 -19 -2 -25 0 -7 3 -2 5 12 5 14 0 19 -2 13 -5z m157 3 c0 -2 -9 -6
-20 -9 -11 -3 -18 -1 -14 4 5 9 34 13 34 5z m67 -12 c-3 -3 -12 -4 -19 -1 -8
3 -5 6 6 6 11 1 17 -2 13 -5z m-1847 -14 c8 -5 11 -10 5 -10 -5 0 -17 5 -25
10 -8 5 -10 10 -5 10 6 0 17 -5 25 -10z m160 0 c-8 -5 -19 -10 -25 -10 -5 0
-3 5 5 10 8 5 20 10 25 10 6 0 3 -5 -5 -10z m1845 -20 c13 -5 14 -9 5 -9 -8 0
-24 4 -35 9 -13 5 -14 9 -5 9 8 0 24 -4 35 -9z m-1828 -6 c-3 -3 -12 -4 -19
-1 -8 3 -5 6 6 6 11 1 17 -2 13 -5z m1920 -10 c-3 -3 -12 -4 -19 -1 -8 3 -5 6
6 6 11 1 17 -2 13 -5z m80 -20 c-3 -3 -12 -4 -19 -1 -8 3 -5 6 6 6 11 1 17 -2
13 -5z m-1834 -21 c-7 -2 -19 -2 -25 0 -7 3 -2 5 12 5 14 0 19 -2 13 -5z m167
-23 c12 -8 9 -10 -12 -10 -16 0 -28 5 -28 10 0 13 20 13 40 0z m1930 -20 c11
-8 7 -9 -15 -4 -37 8 -45 14 -19 14 10 0 26 -5 34 -10z m-42 -17 c-10 -2 -26
-2 -35 0 -10 3 -2 5 17 5 19 0 27 -2 18 -5z m-61 -9 c-3 -3 -12 -4 -19 -1 -8
3 -5 6 6 6 11 1 17 -2 13 -5z m-1394 -11 c-7 -2 -19 -2 -25 0 -7 3 -2 5 12 5
14 0 19 -2 13 -5z m240 -90 c-7 -2 -19 -2 -25 0 -7 3 -2 5 12 5 14 0 19 -2 13
-5z m354 -79 c-3 -3 -12 -4 -19 -1 -8 3 -5 6 6 6 11 1 17 -2 13 -5z m-17400
-1406 c-2 -13 -4 -3 -4 22 0 25 2 35 4 23 2 -13 2 -33 0 -45z"/>
<path d="M13488 8413 c6 -2 18 -2 25 0 6 3 1 5 -13 5 -14 0 -19 -2 -12 -5z"/>
<path d="M14140 8356 c-24 -14 -24 -14 22 -21 25 -4 54 -5 64 -2 12 3 8 5 -11
6 -29 2 -29 2 -11 16 19 14 18 15 -10 15 -16 -1 -40 -7 -54 -14z"/>
<path d="M11745 8330 c11 -5 27 -9 35 -9 9 0 8 4 -5 9 -11 5 -27 9 -35 9 -9 0
-8 -4 5 -9z"/>
<path d="M11898 8323 c7 -3 16 -2 19 1 4 3 -2 6 -13 5 -11 0 -14 -3 -6 -6z"/>
<path d="M14328 8323 c6 -2 18 -2 25 0 6 3 1 5 -13 5 -14 0 -19 -2 -12 -5z"/>
<path d="M11418 8273 c7 -3 16 -2 19 1 4 3 -2 6 -13 5 -11 0 -14 -3 -6 -6z"/>
<path d="M11330 8261 c0 -10 50 -25 58 -16 3 3 -2 5 -11 5 -9 0 -17 5 -17 10
0 6 -7 10 -15 10 -8 0 -15 -4 -15 -9z"/>
<path d="M10980 8190 c0 -5 14 -10 30 -10 17 0 30 5 30 10 0 6 -13 10 -30 10
-16 0 -30 -4 -30 -10z"/>
<path d="M11098 8173 c7 -3 16 -2 19 1 4 3 -2 6 -13 5 -11 0 -14 -3 -6 -6z"/>
<path d="M14520 8150 c0 -5 -9 -10 -20 -10 -18 0 -20 -7 -20 -69 0 -69 0 -69
31 -76 17 -4 33 -4 36 -1 4 3 -1 6 -10 6 -14 0 -17 11 -17 70 0 63 2 70 20 70
11 0 20 5 20 10 0 6 -9 10 -20 10 -11 0 -20 -4 -20 -10z"/>
<path d="M10993 8105 c-19 -21 -16 -25 17 -25 23 0 30 4 30 20 0 23 -29 26
-47 5z"/>
<path d="M14560 8034 c0 -38 3 -45 16 -40 9 3 22 6 30 6 22 0 16 17 -8 25 -22
7 -22 7 -3 12 11 3 24 10 28 17 6 8 10 8 14 -1 2 -7 9 -13 14 -13 6 0 7 5 3
11 -5 8 3 10 27 4 45 -9 106 -8 126 3 10 6 -4 7 -37 4 -38 -3 -51 -2 -46 7 5
8 -17 11 -78 11 l-86 0 0 -46z"/>
<path d="M10470 8030 c-8 -5 -10 -10 -5 -10 6 0 17 5 25 10 8 5 11 10 5 10 -5
0 -17 -5 -25 -10z"/>
<path d="M14383 7993 c9 -2 25 -2 35 0 9 3 1 5 -18 5 -19 0 -27 -2 -17 -5z"/>
<path d="M14443 7983 c-31 -3 -43 -9 -43 -20 0 -11 6 -14 23 -8 12 4 34 9 50
12 15 3 27 9 27 14 0 5 -3 8 -7 7 -5 -1 -27 -3 -50 -5z"/>
<path d="M14320 7940 c0 -5 5 -10 11 -10 5 0 7 5 4 10 -3 6 -8 10 -11 10 -2 0
-4 -4 -4 -10z"/>
<path d="M10500 7930 c0 -5 14 -10 30 -10 17 0 30 5 30 10 0 6 -13 10 -30 10
-16 0 -30 -4 -30 -10z"/>
<path d="M10168 7923 c6 -2 18 -2 25 0 6 3 1 5 -13 5 -14 0 -19 -2 -12 -5z"/>
<path d="M13920 7910 c0 -5 14 -10 30 -10 17 0 30 5 30 10 0 6 -13 10 -30 10
-16 0 -30 -4 -30 -10z"/>
<path d="M14128 7913 c12 -2 30 -2 40 0 9 3 -1 5 -23 4 -22 0 -30 -2 -17 -4z"/>
<path d="M14230 7910 c-56 -13 -110 -34 -110 -42 0 -13 38 -9 53 6 8 8 31 18
51 21 20 4 39 11 42 16 3 5 4 8 2 8 -2 -1 -19 -5 -38 -9z"/>
<path d="M10037 7873 c-11 -10 -8 -20 6 -26 7 -3 19 4 25 14 10 16 9 19 -6 19
-10 0 -22 -3 -25 -7z"/>
<path d="M9995 7850 c-3 -5 -1 -10 4 -10 6 0 11 5 11 10 0 6 -2 10 -4 10 -3 0
-8 -4 -11 -10z"/>
<path d="M14060 7840 c-23 -7 -23 -8 -3 -9 12 -1 25 4 28 9 3 6 5 10 3 9 -2
-1 -14 -5 -28 -9z"/>
<path d="M13993 7823 c-21 -8 -15 -22 7 -16 11 3 20 9 20 14 0 10 -8 10 -27 2z"/>
<path d="M9840 7695 c0 -88 1 -95 20 -95 18 0 20 7 20 80 0 47 -4 80 -10 80
-5 0 -10 7 -10 15 0 8 -4 15 -10 15 -6 0 -10 -38 -10 -95z"/>
<path d="M9767 7753 c-4 -3 -7 -17 -7 -30 0 -21 -4 -23 -35 -21 -19 1 -37 -1
-41 -5 -4 -4 6 -7 23 -7 17 0 45 -3 62 -6 31 -6 31 -6 31 35 0 39 -14 53 -33
34z"/>
<path d="M13715 7751 c-11 -5 -23 -7 -27 -4 -5 2 -8 -1 -8 -8 0 -7 9 -9 23 -5
12 3 32 6 45 6 12 0 22 5 22 10 0 12 -27 12 -55 1z"/>
<path d="M13770 7737 c-15 -24 -5 -34 16 -16 9 8 33 19 53 25 l36 12 -46 -1
c-34 -1 -50 -6 -59 -20z"/>
<path d="M9920 7560 c0 -113 1 -120 20 -120 19 0 20 7 20 120 0 113 -1 120
-20 120 -19 0 -20 -7 -20 -120z"/>
<path d="M13578 7673 c7 -3 16 -2 19 1 4 3 -2 6 -13 5 -11 0 -14 -3 -6 -6z"/>
<path d="M13668 7673 c7 -3 16 -2 19 1 4 3 -2 6 -13 5 -11 0 -14 -3 -6 -6z"/>
<path d="M13600 7650 c0 -5 6 -10 14 -10 8 0 18 5 21 10 3 6 -3 10 -14 10 -12
0 -21 -4 -21 -10z"/>
<path d="M9535 7630 c-3 -5 1 -10 10 -10 9 0 13 5 10 10 -3 6 -8 10 -10 10 -2
0 -7 -4 -10 -10z"/>
<path d="M13558 7633 c7 -3 16 -2 19 1 4 3 -2 6 -13 5 -11 0 -14 -3 -6 -6z"/>
<path d="M13510 7600 c-9 -6 -10 -10 -3 -10 6 0 15 5 18 10 8 12 4 12 -15 0z"/>
<path d="M13400 7590 c0 -5 9 -10 20 -10 11 0 20 5 20 10 0 6 -9 10 -20 10
-11 0 -20 -4 -20 -10z"/>
<path d="M13460 7580 c0 -5 7 -7 15 -4 8 4 15 8 15 10 0 2 -7 4 -15 4 -8 0
-15 -4 -15 -10z"/>
<path d="M13413 7563 c-24 -3 -33 -9 -33 -23 0 -19 1 -19 35 1 19 12 35 23 35
25 0 2 -1 3 -2 2 -2 0 -18 -3 -35 -5z"/>
<path d="M13280 7551 c0 -5 6 -12 13 -14 9 -4 9 -8 -2 -15 -13 -10 -10 -14 21
-25 12 -4 15 -2 11 9 -3 7 0 14 6 14 6 0 11 9 11 20 0 16 -7 20 -30 20 -16 0
-30 -4 -30 -9z"/>
<path d="M10000 7440 c0 -73 2 -80 20 -80 18 0 20 7 20 80 0 73 -2 80 -20 80
-18 0 -20 -7 -20 -80z"/>
<path d="M13260 7480 c-12 -8 -11 -10 8 -10 12 0 22 5 22 10 0 13 -11 13 -30
0z"/>
<path d="M9226 7455 c-11 -8 -16 -15 -10 -15 5 0 18 7 28 15 11 8 16 15 10 15
-5 0 -18 -7 -28 -15z"/>
<path d="M13216 7445 c-11 -8 -15 -15 -9 -15 6 0 16 7 23 15 16 19 11 19 -14
0z"/>
<path d="M13148 7433 c7 -3 16 -2 19 1 4 3 -2 6 -13 5 -11 0 -14 -3 -6 -6z"/>
<path d="M9191 7414 c0 -11 3 -14 6 -6 3 7 2 16 -1 19 -3 4 -6 -2 -5 -13z"/>
<path d="M13120 7417 c0 -22 25 -28 47 -11 16 13 16 13 0 8 -9 -3 -24 -1 -32
6 -12 10 -15 10 -15 -3z"/>
<path d="M9145 7380 c-9 -15 -1 -23 21 -18 15 3 16 4 1 16 -11 9 -17 10 -22 2z"/>
<path d="M10080 7280 c0 -73 2 -80 20 -80 18 0 20 7 20 80 0 73 -2 80 -20 80
-18 0 -20 -7 -20 -80z"/>
<path d="M12988 7353 c7 -3 16 -2 19 1 4 3 -2 6 -13 5 -11 0 -14 -3 -6 -6z"/>
<path d="M13060 7350 c0 -5 -8 -10 -17 -11 -11 0 -13 -3 -6 -6 7 -2 23 3 35
11 18 13 19 16 5 16 -9 0 -17 -4 -17 -10z"/>
<path d="M13000 7309 c0 -5 5 -7 10 -4 6 3 10 8 10 11 0 2 -4 4 -10 4 -5 0
-10 -5 -10 -11z"/>
<path d="M12952 7284 c-7 -8 -8 -14 -3 -14 10 0 25 19 20 25 -2 1 -10 -3 -17
-11z"/>
<path d="M10160 7200 c0 -73 2 -80 20 -80 18 0 20 7 20 80 0 73 -2 80 -20 80
-18 0 -20 -7 -20 -80z"/>
<path d="M12907 7264 c6 -15 23 -19 23 -5 0 5 -7 11 -14 14 -10 4 -13 1 -9 -9z"/>
<path d="M8910 7230 c-13 -8 -13 -10 2 -10 9 0 20 5 23 10 8 13 -5 13 -25 0z"/>
<path d="M12888 7233 c7 -3 16 -2 19 1 4 3 -2 6 -13 5 -11 0 -14 -3 -6 -6z"/>
<path d="M12860 7210 c0 -5 5 -10 10 -10 6 0 10 5 10 10 0 6 -4 10 -10 10 -5
0 -10 -4 -10 -10z"/>
<path d="M12752 7164 c10 -10 20 -16 22 -13 3 3 -5 11 -17 18 -21 13 -21 12
-5 -5z"/>
<path d="M12790 7170 c0 -5 7 -7 15 -4 8 4 15 8 15 10 0 2 -7 4 -15 4 -8 0
-15 -4 -15 -10z"/>
<path d="M8780 7150 c0 -5 5 -10 10 -10 6 0 10 5 10 10 0 6 -4 10 -10 10 -5 0
-10 -4 -10 -10z"/>
<path d="M10240 7040 c0 -73 2 -80 20 -80 18 0 20 7 20 80 0 73 -2 80 -20 80
-18 0 -20 -7 -20 -80z"/>
<path d="M12660 7111 c0 -5 7 -12 16 -15 24 -9 27 -7 10 9 -17 17 -26 19 -26
6z"/>
<path d="M12642 7076 c2 -19 5 -22 15 -14 10 8 10 14 2 24 -16 20 -19 18 -17
-10z"/>
<path d="M12480 7040 c0 -24 6 -25 26 -6 19 20 18 26 -6 26 -13 0 -20 -7 -20
-20z"/>
<path d="M8658 7043 c7 -3 16 -2 19 1 4 3 -2 6 -13 5 -11 0 -14 -3 -6 -6z"/>
<path d="M8620 7010 c0 -5 5 -10 10 -10 6 0 10 5 10 10 0 6 -4 10 -10 10 -5 0
-10 -4 -10 -10z"/>
<path d="M12554 7007 c-12 -15 -25 -47 -18 -47 2 0 18 14 34 30 23 23 26 30
12 30 -9 -1 -22 -6 -28 -13z"/>
<path d="M8588 6963 c7 -3 16 -2 19 1 4 3 -2 6 -13 5 -11 0 -14 -3 -6 -6z"/>
<path d="M10320 6880 c0 -73 2 -80 20 -80 18 0 20 7 20 80 0 73 -2 80 -20 80
-18 0 -20 -7 -20 -80z"/>
<path d="M12480 6938 c-11 -12 -18 -23 -16 -26 6 -6 56 29 56 39 0 16 -19 10
-40 -13z"/>
<path d="M12396 6869 c-21 -22 -36 -42 -34 -44 7 -7 87 60 88 73 0 21 -13 13
-54 -29z"/>
<path d="M10400 6800 c0 -73 2 -80 20 -80 18 0 20 7 20 80 0 73 -2 80 -20 80
-18 0 -20 -7 -20 -80z"/>
<path d="M12300 6780 c-19 -16 -31 -30 -26 -30 4 0 24 14 43 30 44 39 29 39
-17 0z"/>
<path d="M12220 6780 c0 -23 25 -27 46 -6 21 21 18 26 -16 26 -23 0 -30 -4
-30 -20z"/>
<path d="M12160 6731 c0 -5 6 -12 13 -14 10 -4 10 -6 0 -6 -15 -1 -18 -51 -3
-51 6 0 10 9 10 20 0 11 5 20 10 20 6 0 10 9 10 20 0 13 -7 20 -20 20 -11 0
-20 -4 -20 -9z"/>
<path d="M12241 6724 c0 -11 3 -14 6 -6 3 7 2 16 -1 19 -3 4 -6 -2 -5 -13z"/>
<path d="M10480 6640 c0 -73 2 -80 20 -80 18 0 20 7 20 80 0 73 -2 80 -20 80
-18 0 -20 -7 -20 -80z"/>
<path d="M10560 6680 c0 -33 3 -40 20 -40 17 0 20 7 20 40 0 33 -3 40 -20 40
-17 0 -20 -7 -20 -40z"/>
<path d="M12000 6620 c0 -11 5 -20 10 -20 6 0 10 9 10 20 0 11 -4 20 -10 20
-5 0 -10 -9 -10 -20z"/>
<path d="M12060 6630 c0 -5 5 -10 10 -10 6 0 10 5 10 10 0 6 -4 10 -10 10 -5
0 -10 -4 -10 -10z"/>
<path d="M12100 6631 c0 -5 7 -11 14 -14 10 -4 13 -1 9 9 -6 15 -23 19 -23 5z"/>
<path d="M12080 6572 c0 -6 -9 -14 -20 -17 -11 -3 -20 -14 -20 -23 0 -13 6
-11 27 10 15 15 24 31 20 34 -4 4 -7 2 -7 -4z"/>
<path d="M10560 6480 c0 -73 2 -80 20 -80 18 0 20 7 20 80 0 73 -2 80 -20 80
-18 0 -20 -7 -20 -80z"/>
<path d="M12003 6530 c4 -19 1 -34 -8 -44 -17 -16 -19 -26 -7 -26 4 0 15 12
23 28 16 29 14 72 -3 72 -6 0 -8 -12 -5 -30z"/>
<path d="M10640 6400 c0 -73 2 -80 20 -80 18 0 20 7 20 80 0 73 -2 80 -20 80
-18 0 -20 -7 -20 -80z"/>
<path d="M11840 6460 c0 -11 5 -20 10 -20 6 0 10 9 10 20 0 11 -4 20 -10 20
-5 0 -10 -9 -10 -20z"/>
<path d="M11921 6454 c0 -11 3 -14 6 -6 3 7 2 16 -1 19 -3 4 -6 -2 -5 -13z"/>
<path d="M11902 6394 c-37 -39 -21 -46 18 -8 20 20 28 34 20 33 -8 0 -25 -11
-38 -25z"/>
<path d="M7897 6366 c-4 -10 -1 -13 9 -9 7 3 14 9 14 14 0 14 -17 10 -23 -5z"/>
<path d="M10720 6240 c0 -73 2 -80 20 -80 18 0 20 7 20 80 0 73 -2 80 -20 80
-18 0 -20 -7 -20 -80z"/>
<path d="M11751 6223 c-19 -18 -32 -36 -28 -39 4 -4 7 -2 7 5 0 7 4 10 9 7 10
-7 55 39 50 51 -2 5 -19 -6 -38 -24z"/>
<path d="M7751 6194 c0 -11 3 -14 6 -6 3 7 2 16 -1 19 -3 4 -6 -2 -5 -13z"/>
<path d="M10800 6080 c0 -73 2 -80 20 -80 18 0 20 7 20 80 0 73 -2 80 -20 80
-18 0 -20 -7 -20 -80z"/>
<path d="M11681 6134 c0 -11 3 -14 6 -6 3 7 2 16 -1 19 -3 4 -6 -2 -5 -13z"/>
<path d="M10880 6000 c0 -73 2 -80 20 -80 18 0 20 7 20 80 0 73 -2 80 -20 80
-18 0 -20 -7 -20 -80z"/>
<path d="M11625 6069 c-11 -17 1 -21 15 -4 8 9 8 15 2 15 -6 0 -14 -5 -17 -11z"/>
<path d="M10960 5840 c0 -73 2 -80 20 -80 18 0 20 7 20 80 0 73 -2 80 -20 80
-18 0 -20 -7 -20 -80z"/>
<path d="M11380 5813 c0 -37 9 -40 45 -17 30 19 24 50 -6 31 -16 -10 -21 -9
-29 3 -7 11 -10 7 -10 -17z"/>
<path d="M11040 5680 c0 -73 2 -80 20 -80 18 0 20 7 20 80 0 73 -2 80 -20 80
-18 0 -20 -7 -20 -80z"/>
<path d="M11280 5710 c0 -48 1 -50 20 -38 14 9 20 24 20 50 0 31 -4 38 -20 38
-17 0 -20 -7 -20 -50z"/>
<path d="M11120 5600 c0 -73 2 -80 20 -80 18 0 20 7 20 80 0 73 -2 80 -20 80
-18 0 -20 -7 -20 -80z"/>
<path d="M11200 5584 c0 -8 5 -12 10 -9 6 3 10 10 10 16 0 5 -4 9 -10 9 -5 0
-10 -7 -10 -16z"/>
<path d="M11236 5535 c-3 -8 -1 -15 4 -15 6 0 10 7 10 15 0 8 -2 15 -4 15 -2
0 -6 -7 -10 -15z"/>
<path d="M11077 5312 c-19 -20 -22 -32 -9 -32 5 0 14 11 20 25 14 30 11 31
-11 7z"/>
<path d="M10900 5090 c0 -5 7 -10 16 -10 8 0 12 5 9 10 -3 6 -10 10 -16 10 -5
0 -9 -4 -9 -10z"/>
<path d="M10711 4784 c0 -11 3 -14 6 -6 3 7 2 16 -1 19 -3 4 -6 -2 -5 -13z"/>
<path d="M10670 4750 c0 -19 3 -21 12 -12 9 9 9 15 0 24 -9 9 -12 7 -12 -12z"/>
<path d="M10351 4354 c0 -11 3 -14 6 -6 3 7 2 16 -1 19 -3 4 -6 -2 -5 -13z"/>
<path d="M10105 4070 c3 -5 8 -10 11 -10 2 0 4 5 4 10 0 6 -5 10 -11 10 -5 0
-7 -4 -4 -10z"/>
<path d="M9700 3650 c0 -5 5 -10 10 -10 6 0 10 5 10 10 0 6 -4 10 -10 10 -5 0
-10 -4 -10 -10z"/>
<path d="M9542 3488 c2 -6 10 -14 16 -16 7 -2 10 2 6 12 -7 18 -28 22 -22 4z"/>
<path d="M9395 3319 c-11 -16 -1 -19 13 -3 7 8 8 14 3 14 -5 0 -13 -5 -16 -11z"/>
</g>
</svg>
