<svg id="search" xmlns="http://www.w3.org/2000/svg" width="122.879" height="119.799" viewBox="0 0 122.879 119.799">
  <path id="Path_272" data-name="Path 272" d="M49.988,0H50V.007A49.972,49.972,0,0,1,99.968,49.955h.007v.073h-.007A49.932,49.932,0,0,1,97.374,65.92q-.421,1.255-.877,2.409v.007A50.011,50.011,0,0,1,90.95,78.643l29.082,26.139.018.016.157.146.011.011a8.636,8.636,0,0,1,.67,11.751l-.011.016-.175.2-.035.035-.146.16-.016.021a8.641,8.641,0,0,1-11.751.668l-.015-.011-.2-.175-.029-.024L78.761,90.865q-1.32.93-2.687,1.765c-1.233.755-2.51,1.466-3.813,2.115a49.77,49.77,0,0,1-22.272,5.222v.007h-.016v-.007A49.972,49.972,0,0,1,.007,50.021H0v-.049H.007A49.97,49.97,0,0,1,49.955.007V0ZM50,11.21v.007h-.049V11.21A38.786,38.786,0,0,0,11.21,49.973h.007v.049H11.21A38.786,38.786,0,0,0,49.972,88.764v-.007h.049v.007A38.784,38.784,0,0,0,88.763,50h-.006v-.049h.006A38.786,38.786,0,0,0,50,11.21Z" fill="#fff"/>
</svg>
